<svg xmlns="http://www.w3.org/2000/svg" version="1.1" xmlns:xlink="http://www.w3.org/1999/xlink" xmlns:svgjs="http://svgjs.com/svgjs" width="1440" height="560" preserveAspectRatio="none" viewBox="0 0 1440 560"><g mask="url(&quot;#SvgjsMask1328&quot;)" fill="none"><rect width="1440" height="560" x="0" y="0" fill="url(#SvgjsLinearGradient1329)"></rect><path d="M1440 0L1022.9300000000001 0L1440 191.06z" fill="rgba(255, 255, 255, .1)"></path><path d="M1022.9300000000001 0L1440 191.06L1440 328.75L494.1500000000001 0z" fill="rgba(255, 255, 255, .075)"></path><path d="M494.1500000000001 0L1440 328.75L1440 434.03L447.80000000000007 0z" fill="rgba(255, 255, 255, .05)"></path><path d="M447.80000000000007 0L1440 434.03L1440 509.43999999999994L144.83000000000004 0z" fill="rgba(255, 255, 255, .025)"></path><path d="M0 560L242.2 560L0 443.79z" fill="rgba(0, 0, 0, .1)"></path><path d="M0 443.79L242.2 560L549.73 560L0 224.36z" fill="rgba(0, 0, 0, .075)"></path><path d="M0 224.36L549.73 560L584.5600000000001 560L0 114.32000000000001z" fill="rgba(0, 0, 0, .05)"></path><path d="M0 114.32L584.5600000000001 560L800.1100000000001 560L0 58.349999999999994z" fill="rgba(0, 0, 0, .025)"></path></g><defs><mask id="SvgjsMask1328"><rect width="1440" height="560" fill="#ffffff"></rect></mask><linearGradient x1="15.28%" y1="-39.29%" x2="84.72%" y2="139.29%" gradientUnits="userSpaceOnUse" id="SvgjsLinearGradient1329"><stop stop-color="#0e2a47" offset="0"></stop><stop stop-color="rgba(154, 167, 184, 1)" offset="1"></stop></linearGradient></defs></svg>